<?xml version="1.0" standalone="no"?>
<!DOCTYPE svg PUBLIC "-//W3C//DTD SVG 20010904//EN"
 "http://www.w3.org/TR/2001/REC-SVG-20010904/DTD/svg10.dtd">
<svg version="1.0" xmlns="http://www.w3.org/2000/svg"
 width="779.000000pt" height="584.000000pt" viewBox="0 0 779.000000 584.000000"
 preserveAspectRatio="xMidYMid meet">

<g transform="translate(0.000000,584.000000) scale(0.100000,-0.100000)"
fill="#000000" stroke="none">
<path d="M901 4116 c-9 -10 -8 -16 4 -26 20 -16 38 -1 29 23 -8 21 -18 22 -33
3z"/>
<path d="M1050 4115 c0 -11 -11 -15 -40 -15 l-40 0 0 -40 c0 -28 -4 -40 -14
-40 -10 0 -16 -13 -18 -37 -3 -36 -5 -38 -40 -41 -43 -4 -49 -19 -18 -47 18
-16 20 -31 20 -146 0 -103 3 -131 16 -143 23 -24 365 -24 388 0 13 12 16 40
16 143 0 115 2 130 20 146 31 28 25 43 -17 47 -36 3 -38 5 -41 41 -2 24 -8 37
-18 37 -10 0 -14 12 -14 40 l0 40 -40 0 c-29 0 -40 4 -40 15 0 12 -13 15 -60
15 -47 0 -60 -3 -60 -15z m95 -15 c-3 -5 -22 -10 -41 -10 -19 0 -34 5 -34 10
0 6 18 10 41 10 24 0 38 -4 34 -10z m-95 -55 l0 -35 60 0 60 0 0 35 c0 32 2
35 30 35 27 0 30 -3 30 -30 0 -16 -4 -30 -9 -30 -6 0 -11 -17 -13 -37 l-3 -38
-95 0 -95 0 -3 38 c-2 20 -7 37 -13 37 -5 0 -9 14 -9 30 0 27 3 30 30 30 28 0
30 -3 30 -35z m100 5 c0 -17 -7 -20 -40 -20 -33 0 -40 3 -40 20 0 17 7 20 40
20 33 0 40 -3 40 -20z m-160 -206 c0 -143 -1 -155 -17 -152 -16 3 -18 19 -21
143 -3 150 -1 165 23 165 13 0 15 -23 15 -156z m278 -2 c2 -147 2 -152 -18
-152 -19 0 -20 6 -20 156 0 143 1 155 18 152 15 -3 17 -20 20 -156z m-330 45
c4 -30 -12 -37 -22 -9 -3 9 -9 23 -12 30 -4 10 0 13 12 10 12 -2 20 -13 22
-31z m270 4 c2 -13 -2 -28 -10 -32 -15 -10 -148 -12 -172 -3 -16 6 -22 45 -9
58 4 4 48 5 98 4 86 -3 90 -4 93 -27z m108 17 c-3 -7 -9 -21 -12 -30 -4 -10
-10 -18 -15 -18 -10 0 -12 43 -2 53 11 12 35 7 29 -5z m-376 -164 l0 -85 33 3
32 3 3 83 3 82 99 0 100 0 0 -86 0 -85 33 3 32 3 3 83 c2 45 7 82 12 82 15 0
13 -193 -2 -208 -17 -17 -339 -17 -356 0 -15 15 -17 208 -2 208 6 0 10 -35 10
-86z"/>
<path d="M1080 3800 c0 -5 5 -10 10 -10 6 0 10 5 10 10 0 6 -4 10 -10 10 -5 0
-10 -4 -10 -10z"/>
<path d="M1120 3800 c0 -5 5 -10 10 -10 6 0 10 5 10 10 0 6 -4 10 -10 10 -5 0
-10 -4 -10 -10z"/>
<path d="M1160 3799 c0 -5 5 -7 10 -4 6 3 10 8 10 11 0 2 -4 4 -10 4 -5 0 -10
-5 -10 -11z"/>
<path d="M1085 3760 c-3 -5 -1 -10 4 -10 6 0 11 5 11 10 0 6 -2 10 -4 10 -3 0
-8 -4 -11 -10z"/>
<path d="M1120 3760 c0 -5 5 -10 10 -10 6 0 10 5 10 10 0 6 -4 10 -10 10 -5 0
-10 -4 -10 -10z"/>
<path d="M1160 3760 c0 -5 5 -10 11 -10 5 0 7 5 4 10 -3 6 -8 10 -11 10 -2 0
-4 -4 -4 -10z"/>
<path d="M1280 4100 c0 -5 11 -10 25 -10 14 0 25 5 25 10 0 6 -11 10 -25 10
-14 0 -25 -4 -25 -10z"/>
<path d="M1720 3865 c0 -44 0 -45 33 -44 30 2 30 2 5 6 -16 2 -28 10 -28 18 0
8 12 16 28 18 l27 4 -27 2 c-17 0 -28 7 -28 15 0 8 12 17 28 19 25 4 25 4 -5
6 -33 1 -33 0 -33 -44z"/>
<path d="M1813 3865 c0 -27 2 -38 4 -22 2 15 2 37 0 50 -2 12 -4 0 -4 -28z"/>
<path d="M2193 3865 c0 -27 2 -38 4 -22 2 15 2 37 0 50 -2 12 -4 0 -4 -28z"/>
<path d="M4822 3899 c-21 -8 -22 -13 -22 -160 l0 -151 35 6 c31 6 379 8 445 3
l25 -2 3 144 c2 89 -1 148 -8 155 -12 12 -446 17 -478 5z m468 -109 l0 -100
-235 0 -235 0 0 100 0 100 235 0 235 0 0 -100z m0 -145 l0 -25 -235 0 -235 0
0 25 0 25 235 0 235 0 0 -25z"/>
<path d="M4833 3860 c6 -22 37 -25 37 -3 0 15 -2 16 -10 3 -9 -13 -11 -13 -21
0 -9 13 -10 13 -6 0z"/>
<path d="M4968 3803 c5 -101 9 -111 11 -25 0 45 -2 82 -6 82 -5 0 -7 -26 -5
-57z"/>
<path d="M5133 3780 c0 -47 2 -66 4 -42 2 23 2 61 0 85 -2 23 -4 4 -4 -43z"/>
<path d="M5024 3832 c-16 -6 -21 -15 -21 -49 0 -24 3 -43 7 -43 5 0 17 -3 27
-7 16 -6 16 -5 4 10 -7 9 -9 17 -4 17 5 0 10 18 11 40 1 22 1 40 -1 39 -1 -1
-11 -4 -23 -7z"/>
<path d="M5060 3829 c0 -5 6 -9 13 -9 8 0 8 -3 1 -8 -5 -4 -11 -23 -12 -43 -2
-33 0 -36 21 -32 19 4 23 11 23 48 1 38 -2 44 -22 48 -13 2 -24 0 -24 -4z"/>
<path d="M5180 3829 c-14 -4 -19 -7 -12 -8 7 -1 10 -6 6 -12 -3 -6 0 -15 7
-20 11 -7 11 -9 -3 -9 -23 0 -12 -37 13 -43 10 -3 19 -1 19 4 0 5 -6 9 -12 9
-10 0 -10 2 0 9 8 5 12 22 10 43 -3 31 -5 33 -28 27z"/>
<path d="M5230 3830 c0 -5 6 -11 13 -13 10 -4 10 -6 0 -6 -7 -1 -13 -12 -13
-25 0 -13 6 -27 13 -29 10 -4 10 -6 0 -6 -7 -1 -13 -5 -13 -10 0 -5 8 -7 19
-4 14 4 18 14 18 48 0 34 -4 44 -18 48 -11 3 -19 1 -19 -3z"/>
<path d="M4865 3790 c-3 -5 -1 -10 4 -10 6 0 11 5 11 10 0 6 -2 10 -4 10 -3 0
-8 -4 -11 -10z"/>
<path d="M4850 3760 c0 -5 5 -10 11 -10 5 0 7 5 4 10 -3 6 -8 10 -11 10 -2 0
-4 -4 -4 -10z"/>
<path d="M4880 3761 c0 -5 -3 -18 -6 -28 -5 -15 -4 -16 6 -3 9 11 13 12 17 3
2 -7 8 -13 13 -13 4 0 3 11 -3 25 -12 25 -27 34 -27 16z"/>
<path d="M2000 3861 c0 -22 5 -41 13 -44 8 -3 11 6 10 32 -2 52 -2 51 -13 51
-5 0 -10 -18 -10 -39z"/>
<path d="M1845 3859 c-10 -30 16 -55 41 -40 17 11 17 11 -3 6 -12 -3 -24 -1
-28 5 -4 6 4 10 20 10 20 0 26 4 23 18 -5 26 -45 28 -53 1z m45 1 c0 -5 -7
-10 -15 -10 -8 0 -15 5 -15 10 0 6 7 10 15 10 8 0 15 -4 15 -10z"/>
<path d="M1927 3873 c-25 -25 10 -72 40 -54 17 11 17 11 -2 9 -14 -2 -21 4
-23 21 -3 20 0 23 17 18 12 -3 19 -1 15 4 -6 10 -38 12 -47 2z"/>
<path d="M2051 3845 c1 -20 3 -24 6 -10 3 11 12 25 20 32 13 10 12 12 -6 10
-17 -1 -21 -7 -20 -32z"/>
<path d="M2104 3858 c-6 -20 15 -48 37 -48 15 0 30 30 24 50 -9 28 -51 27 -61
-2z m46 -7 c0 -11 -4 -22 -8 -25 -14 -9 -35 12 -29 28 9 23 37 20 37 -3z"/>
<path d="M2231 3867 c-1 -10 4 -27 10 -38 8 -15 7 -24 -2 -35 -9 -12 -9 -13 3
-9 8 3 20 20 26 39 16 43 15 54 -2 30 -14 -18 -15 -18 -25 6 -7 19 -10 20 -10
7z"/>
<path d="M2307 3873 c-9 -8 12 -33 28 -33 8 0 16 -6 18 -12 4 -8 6 -7 6 3 1 9
-9 20 -21 23 -22 7 -22 7 -3 16 20 8 20 9 -1 9 -11 1 -24 -2 -27 -6z"/>
<path d="M2385 3859 c-10 -30 16 -55 41 -40 17 11 17 11 -3 6 -14 -4 -23 -2
-23 4 0 6 9 11 21 11 28 0 21 34 -8 38 -15 2 -23 -4 -28 -19z m45 1 c0 -5 -7
-10 -15 -10 -8 0 -15 5 -15 10 0 6 7 10 15 10 8 0 15 -4 15 -10z"/>
<path d="M5644 3832 c-19 -12 -26 -50 -14 -72 13 -25 60 -24 68 0 5 13 3 13
-11 1 -24 -20 -47 -6 -47 28 0 32 16 43 43 29 10 -5 17 -5 17 1 0 17 -37 26
-56 13z"/>
<path d="M6147 3833 c-11 -10 -8 -93 3 -93 6 0 10 9 10 19 0 12 8 21 23 24
l22 4 -22 2 c-16 1 -23 7 -23 20 0 12 8 21 23 24 20 4 20 4 -4 6 -14 0 -29 -2
-32 -6z"/>
<path d="M6450 3791 c0 -28 5 -51 10 -51 6 0 10 20 10 44 0 25 -4 48 -10 51
-6 4 -10 -13 -10 -44z"/>
<path d="M6588 3829 c-21 -12 -24 -59 -6 -77 16 -16 43 -15 58 3 15 18 -1 20
-19 3 -10 -11 -15 -9 -27 6 -18 25 -18 31 2 51 12 12 19 13 30 4 9 -7 14 -7
14 -1 0 5 -7 13 -16 16 -19 7 -15 8 -36 -5z"/>
<path d="M6779 3821 c-20 -16 -22 -23 -14 -47 8 -23 17 -29 39 -29 17 0 31 6
34 15 4 12 3 13 -10 2 -23 -19 -48 -4 -48 28 0 31 16 42 43 28 10 -5 17 -5 17
1 0 7 -22 21 -35 21 -1 0 -13 -9 -26 -19z"/>
<path d="M2310 3820 c8 -5 20 -10 25 -10 6 0 3 5 -5 10 -8 5 -19 10 -25 10 -5
0 -3 -5 5 -10z"/>
<path d="M5731 3785 c1 -40 3 -44 8 -21 9 41 31 46 31 7 0 -17 5 -31 11 -31 6
0 9 14 7 32 -2 24 -9 34 -23 37 -11 2 -23 8 -27 15 -4 6 -7 -11 -7 -39z"/>
<path d="M6020 3785 c0 -25 5 -45 10 -45 6 0 10 20 10 45 0 25 -4 45 -10 45
-5 0 -10 -20 -10 -45z"/>
<path d="M6670 3822 c0 -17 30 -82 38 -82 8 0 35 80 29 87 -3 2 -10 -10 -16
-27 -11 -33 -31 -33 -31 0 0 10 -4 22 -10 25 -5 3 -10 2 -10 -3z"/>
<path d="M5833 3803 c11 -3 17 -14 17 -34 0 -16 5 -29 10 -29 11 0 13 30 4 54
-3 9 -16 15 -28 15 -16 -1 -17 -2 -3 -6z"/>
<path d="M5893 3780 c2 -31 5 -35 30 -36 25 -1 27 2 26 35 -1 36 -1 36 -8 6
-3 -17 -13 -30 -21 -30 -8 0 -18 13 -22 30 -6 29 -6 29 -5 -5z"/>
<path d="M5982 3794 c-13 -23 -3 -54 17 -53 10 0 11 2 4 6 -7 2 -13 15 -13 28
0 13 6 26 13 28 9 4 9 6 0 6 -7 1 -16 -6 -21 -15z"/>
<path d="M6233 3775 c0 -22 2 -30 4 -17 2 12 2 30 0 40 -3 9 -5 -1 -4 -23z"/>
<path d="M6292 3801 c-21 -13 -11 -55 14 -59 30 -4 48 21 34 47 -11 22 -27 26
-48 12z m35 -17 c8 -21 -13 -42 -28 -27 -13 13 -5 43 11 43 6 0 13 -7 17 -16z"/>
<path d="M6373 3775 c0 -22 2 -30 4 -17 2 12 2 30 0 40 -3 9 -5 -1 -4 -23z"/>
<path d="M6412 3794 c-13 -23 -3 -54 17 -53 10 0 11 2 4 6 -7 2 -13 15 -13 28
0 13 6 26 13 28 9 4 9 6 0 6 -7 1 -16 -6 -21 -15z"/>
<path d="M5817 3773 c-13 -13 -7 -33 11 -33 13 0 14 2 3 9 -7 5 -10 14 -7 20
8 12 3 15 -7 4z"/>
<path d="M1170 2690 c0 -5 18 -10 40 -10 29 0 40 -4 40 -15 0 -11 -12 -15 -45
-15 -31 0 -47 -5 -51 -15 -4 -10 -20 -15 -50 -15 l-44 0 0 -59 c0 -33 -4 -63
-10 -66 -6 -4 -10 18 -10 59 0 53 -3 66 -15 66 -13 0 -15 -20 -13 -137 2 -98
6 -138 16 -141 9 -3 12 14 12 63 0 41 4 64 10 60 6 -3 10 -33 10 -66 l0 -59
39 0 c33 0 44 -6 74 -40 l35 -40 120 0 c128 0 152 4 152 26 0 8 10 14 25 14
18 0 25 -5 25 -20 0 -16 7 -20 36 -20 31 0 37 4 52 38 22 51 22 213 0 265 -15
33 -21 37 -52 37 -31 0 -36 -3 -36 -24 0 -23 -22 -41 -34 -29 -3 4 -6 17 -6
30 0 19 -5 23 -33 23 -24 0 -35 6 -42 23 -8 18 -19 23 -57 25 -34 2 -48 7 -48
18 0 10 12 14 40 14 22 0 40 5 40 10 0 6 -43 10 -110 10 -67 0 -110 -4 -110
-10z m228 -87 c3 -19 10 -23 38 -23 30 0 34 -3 34 -25 0 -22 4 -25 40 -25 36
0 40 3 40 25 0 37 34 33 51 -6 15 -39 16 -203 1 -241 -14 -34 -52 -39 -52 -8
0 17 -7 20 -39 20 -31 0 -41 -4 -46 -20 -6 -19 -15 -20 -125 -20 l-120 0 -41
45 c-31 33 -49 45 -70 45 l-29 0 0 115 0 115 39 0 c26 0 41 5 45 15 5 13 25
15 118 13 109 -3 113 -4 116 -25z"/>
<path d="M1273 2498 l-30 -63 24 -3 c26 -4 28 -16 8 -52 -28 -49 -13 -44 40
15 52 58 53 60 30 63 -31 4 -31 15 0 56 14 18 25 36 25 39 0 4 -15 7 -34 7
-32 0 -36 -4 -63 -62z"/>
<path d="M4792 2568 c-18 -18 -17 -302 2 -317 9 -8 96 -11 297 -9 l284 3 5 40
c4 32 10 40 30 45 24 6 25 10 28 83 l3 77 -30 0 c-28 0 -30 3 -33 43 l-3 42
-285 3 c-214 2 -289 -1 -298 -10z m136 -155 l3 -143 -61 0 -60 0 0 138 c0 76
3 142 7 146 4 4 30 6 58 4 l50 -3 3 -142z m421 133 c8 -9 11 -56 9 -142 l-3
-129 -197 -3 -198 -2 0 145 0 145 189 0 c149 0 191 -3 200 -14z m69 -133 c-2
-35 -7 -48 -18 -48 -10 0 -16 12 -18 33 -4 43 3 62 23 62 13 0 15 -10 13 -47z"/>
<path d="M5103 2438 c-24 -16 -43 -34 -43 -39 0 -14 24 -11 46 6 28 21 34 18
34 -15 0 -22 5 -30 18 -30 25 0 92 48 92 65 0 20 -13 19 -43 -5 -34 -27 -37
-26 -37 15 0 43 -11 43 -67 3z"/>
<path d="M5760 2496 c0 -46 0 -46 35 -46 35 0 35 0 32 43 -3 39 -5 42 -35 45
-32 3 -32 3 -32 -42z m50 19 c0 -8 -9 -15 -20 -15 -11 0 -20 7 -20 15 0 8 9
15 20 15 11 0 20 -7 20 -15z m5 -40 c0 -5 -10 -11 -22 -13 -16 -2 -23 2 -23
13 0 11 7 15 23 13 12 -2 22 -7 22 -13z"/>
<path d="M5937 2523 c-6 -12 4 -83 13 -83 4 0 6 18 4 41 -3 42 -9 57 -17 42z"/>
<path d="M5982 2488 c2 -23 8 -43 13 -45 6 -2 9 15 7 42 -2 25 -8 45 -14 45
-5 0 -8 -19 -6 -42z"/>
<path d="M1850 2475 c0 -52 17 -61 23 -12 l3 32 8 -32 c5 -18 12 -33 16 -33
10 0 20 26 19 48 0 14 -2 13 -9 -3 -8 -21 -9 -21 -25 30 -2 8 -11 15 -20 15
-11 0 -15 -11 -15 -45z"/>
<path d="M1924 2498 c3 -13 6 -33 6 -45 0 -13 5 -23 10 -23 6 0 10 20 10 45 0
35 -4 45 -16 45 -12 0 -15 -6 -10 -22z"/>
<path d="M2520 2476 c0 -25 5 -46 10 -46 6 0 10 9 10 19 0 13 8 21 23 23 14 2
22 10 22 23 0 15 -8 21 -32 23 -33 3 -33 3 -33 -42z m53 19 c1 -5 -6 -11 -15
-13 -11 -2 -18 3 -18 13 0 17 30 18 33 0z"/>
<path d="M3152 2508 c-29 -29 -7 -78 34 -78 13 0 25 4 29 9 3 6 -7 9 -22 8
-25 -2 -28 2 -31 32 -3 33 -3 34 28 28 19 -4 29 -3 25 3 -9 14 -49 12 -63 -2z"/>
<path d="M2060 2471 c0 -32 4 -41 18 -41 13 0 14 2 3 9 -9 6 -11 18 -7 34 3
14 2 29 -4 32 -6 4 -10 -10 -10 -34z"/>
<path d="M5886 2495 c-3 -8 -1 -15 4 -15 5 0 7 -7 4 -15 -4 -8 -1 -15 5 -15 6
0 11 14 11 30 0 32 -14 40 -24 15z"/>
<path d="M6026 2494 c-9 -25 -7 -33 12 -43 12 -6 23 -6 33 0 11 8 10 9 -6 7
-16 -2 -20 2 -19 25 1 30 -10 36 -20 11z"/>
<path d="M6066 2497 c3 -10 9 -15 12 -12 3 3 0 11 -7 18 -10 9 -11 8 -5 -6z"/>
<path d="M6111 2478 c2 -28 2 -29 6 -8 3 14 10 28 17 32 7 5 5 8 -6 8 -14 0
-18 -8 -17 -32z"/>
<path d="M6160 2480 c0 -16 5 -30 10 -30 6 0 10 14 10 30 0 17 -4 30 -10 30
-5 0 -10 -13 -10 -30z"/>
<path d="M6196 2495 c-12 -31 25 -68 47 -46 6 6 2 9 -9 8 -15 -2 -19 4 -18 26
1 29 -10 36 -20 12z"/>
<path d="M6236 2495 c4 -8 10 -15 15 -15 4 0 6 7 3 15 -4 8 -10 15 -15 15 -4
0 -6 -7 -3 -15z"/>
<path d="M6280 2499 c0 -9 9 -19 21 -22 12 -3 18 -10 14 -17 -4 -6 -14 -9 -24
-5 -12 5 -13 3 -4 -6 15 -15 43 -5 43 16 0 9 -8 19 -17 22 -10 4 -21 11 -25
17 -5 7 -8 5 -8 -5z"/>
<path d="M1974 2475 c-10 -25 4 -45 30 -45 25 0 39 20 30 45 -10 25 -22 17
-16 -11 4 -21 1 -25 -14 -22 -12 2 -19 12 -18 26 1 26 -4 28 -12 7z"/>
<path d="M2104 2475 c-10 -24 4 -45 28 -44 21 1 22 1 3 7 -13 5 -20 15 -19 30
1 25 -4 29 -12 7z"/>
<path d="M2143 2475 c0 -8 4 -15 9 -15 4 0 8 7 8 15 0 8 -4 15 -8 15 -5 0 -9
-7 -9 -15z"/>
<path d="M2180 2476 c0 -30 13 -46 36 -46 21 0 24 4 23 33 -2 30 -2 30 -6 5
-5 -35 -33 -37 -33 -3 0 14 -4 25 -10 25 -5 0 -10 -6 -10 -14z"/>
<path d="M2270 2460 c0 -16 2 -30 4 -30 2 0 6 14 8 30 3 17 1 30 -4 30 -4 0
-8 -13 -8 -30z"/>
<path d="M2320 2481 c0 -5 10 -16 23 -25 l22 -17 -22 5 c-13 2 -23 0 -23 -5 0
-10 43 -12 53 -3 11 11 -5 34 -25 34 -10 0 -16 5 -13 10 3 6 1 10 -4 10 -6 0
-11 -4 -11 -9z"/>
<path d="M2614 2475 c-10 -25 4 -45 30 -45 25 0 39 20 30 45 -10 25 -22 17
-16 -11 4 -21 1 -25 -14 -22 -13 3 -18 11 -17 26 3 25 -5 29 -13 7z"/>
<path d="M2700 2460 c0 -16 2 -30 4 -30 2 0 6 14 8 30 3 17 1 30 -4 30 -4 0
-8 -13 -8 -30z"/>
<path d="M2740 2460 c0 -16 5 -30 10 -30 6 0 10 14 10 30 0 17 -4 30 -10 30
-5 0 -10 -13 -10 -30z"/>
<path d="M2788 2460 c2 -16 6 -30 8 -30 2 0 4 14 4 30 0 17 -4 30 -8 30 -5 0
-7 -13 -4 -30z"/>
<path d="M2820 2445 c0 -25 5 -45 10 -45 6 0 10 6 10 14 0 8 10 16 22 18 25 3
36 34 19 51 -9 9 -11 5 -9 -13 2 -16 -3 -25 -14 -28 -14 -3 -18 3 -18 22 0 14
-4 26 -10 26 -5 0 -10 -20 -10 -45z"/>
<path d="M2912 2463 c2 -22 9 -28 28 -30 22 -1 22 -1 2 4 -17 3 -21 10 -18 29
3 13 0 24 -5 24 -6 0 -9 -12 -7 -27z"/>
<path d="M2946 2475 c-3 -9 0 -15 9 -15 16 0 20 16 6 24 -5 3 -11 -1 -15 -9z"/>
<path d="M2990 2479 c0 -9 9 -19 21 -22 12 -3 18 -10 14 -16 -3 -6 -1 -11 4
-11 18 0 12 30 -6 37 -10 4 -21 11 -25 17 -5 7 -8 5 -8 -5z"/>
<path d="M3246 2475 c-10 -27 5 -46 33 -43 28 3 41 32 22 51 -9 9 -11 5 -9
-13 2 -17 -3 -25 -16 -28 -15 -3 -18 1 -14 22 6 28 -6 36 -16 11z"/>
<path d="M3330 2458 c0 -36 4 -35 14 5 4 16 2 27 -4 27 -5 0 -10 -14 -10 -32z"/>
<path d="M3378 2460 c2 -16 5 -30 7 -30 2 0 5 14 7 30 3 19 0 30 -7 30 -7 0
-10 -11 -7 -30z"/>
<path d="M3418 2460 c2 -16 6 -30 8 -30 2 0 4 14 4 30 0 17 -4 30 -8 30 -5 0
-7 -13 -4 -30z"/>
<path d="M3461 2443 c1 -27 3 -40 6 -31 2 9 14 18 26 20 16 2 23 11 25 31 2
15 -1 27 -6 27 -5 0 -7 -11 -4 -25 3 -21 0 -25 -18 -25 -18 0 -21 4 -18 25 3
14 1 25 -3 25 -5 0 -8 -21 -8 -47z"/>
<path d="M3541 2458 c0 -18 3 -26 6 -18 3 8 10 23 15 33 6 12 5 17 -7 17 -10
0 -15 -10 -14 -32z"/>
<path d="M3596 2478 c-13 -28 0 -48 31 -47 23 1 24 3 6 6 -15 3 -23 13 -25 31
-4 22 -6 24 -12 10z"/>
<path d="M3636 2475 c-3 -8 -1 -15 4 -15 6 0 10 7 10 15 0 8 -2 15 -4 15 -2 0
-6 -7 -10 -15z"/>
<path d="M3670 2480 c0 -6 11 -15 25 -22 13 -6 22 -16 18 -22 -4 -7 -1 -7 7 1
14 13 5 33 -16 33 -8 0 -14 5 -14 10 0 6 -4 10 -10 10 -5 0 -10 -5 -10 -10z"/>
<path d="M3750 2480 c0 -5 12 -16 28 -25 l27 -16 -27 4 c-16 2 -28 0 -28 -4 0
-13 48 -11 56 3 4 6 2 14 -4 16 -7 2 -19 10 -26 18 -17 16 -26 18 -26 4z"/>
<path d="M3832 2463 c2 -20 9 -29 26 -31 12 -2 22 1 22 6 0 6 -9 8 -20 5 -18
-5 -20 -2 -16 21 3 14 0 26 -5 26 -6 0 -9 -12 -7 -27z"/>
<path d="M3870 2476 c0 -9 5 -16 10 -16 6 0 10 4 10 9 0 6 -4 13 -10 16 -5 3
-10 -1 -10 -9z"/>
<path d="M3911 2463 c-1 -30 2 -33 29 -33 27 0 30 3 29 33 -2 30 -2 30 -6 5
-3 -19 -10 -28 -23 -28 -13 0 -20 9 -23 28 -4 25 -4 25 -6 -5z"/>
<path d="M4000 2460 c0 -16 2 -30 4 -30 2 0 6 14 8 30 3 17 1 30 -4 30 -4 0
-8 -13 -8 -30z"/>
<path d="M4050 2479 c0 -9 9 -19 21 -22 13 -4 18 -10 14 -18 -5 -7 -3 -10 4
-8 20 7 18 21 -4 33 -11 6 -23 16 -27 21 -5 6 -8 3 -8 -6z"/>
<path d="M5857 2473 c-11 -10 -8 -20 7 -26 10 -4 12 0 9 14 -6 21 -7 22 -16
12z"/>
<path d="M1297 1294 c-4 -4 -7 -18 -7 -31 0 -17 6 -23 21 -23 16 0 20 5 17 27
-3 26 -18 39 -31 27z m23 -24 c0 -5 -4 -10 -10 -10 -5 0 -10 5 -10 10 0 6 5
10 10 10 6 0 10 -4 10 -10z"/>
<path d="M1213 1273 c-17 -6 -16 -28 2 -43 23 -19 46 -5 36 22 -9 24 -19 29
-38 21z m27 -34 c0 -6 -4 -7 -10 -4 -5 3 -10 11 -10 16 0 6 5 7 10 4 6 -3 10
-11 10 -16z"/>
<path d="M1369 1259 c-13 -25 1 -45 26 -36 22 9 31 37 14 48 -21 13 -27 11
-40 -12z m31 -8 c0 -6 -4 -13 -10 -16 -5 -3 -10 1 -10 9 0 9 5 16 10 16 6 0
10 -4 10 -9z"/>
<path d="M1076 1203 c-8 -54 -7 -323 2 -323 4 0 7 75 7 166 0 134 3 167 15
174 35 23 40 12 40 -86 0 -141 -9 -134 180 -134 103 0 161 4 166 11 3 6 9 58
12 115 2 57 8 104 13 104 38 0 39 -7 39 -211 l0 -199 -229 0 c-210 0 -230 1
-234 18 -3 10 -5 6 -6 -10 l-1 -28 234 0 c159 0 237 4 242 11 10 17 16 298 7
364 l-8 60 -37 3 c-26 2 -40 -2 -50 -16 -7 -10 -22 -22 -33 -26 -19 -8 -19 -8
3 -17 13 -5 22 -15 19 -21 -3 -10 -39 -13 -138 -13 -119 0 -134 2 -137 18 -3
15 7 17 103 17 68 0 104 4 100 10 -3 6 -49 10 -103 10 -86 0 -99 2 -110 20 -9
14 -23 20 -51 20 -37 0 -39 -2 -45 -37z m91 -60 c-2 -16 -4 -5 -4 22 0 28 2
40 4 28 2 -13 2 -35 0 -50z m310 -5 c-2 -13 -4 -3 -4 22 0 25 2 35 4 23 2 -13
2 -33 0 -45z m-187 -22 c0 -19 -22 -26 -81 -26 -47 0 -49 1 -37 20 10 16 24
20 65 20 39 0 53 -4 53 -14z m175 -6 c18 -20 17 -20 -38 -20 -65 0 -87 7 -87
26 0 24 103 19 125 -6z m-109 -56 c-8 -20 -65 -18 -73 2 -4 10 0 20 10 26 10
5 17 16 17 25 0 12 7 8 26 -12 14 -15 23 -34 20 -41z m-91 6 c-3 -5 -28 -10
-56 -10 -27 0 -49 5 -49 10 0 6 25 10 56 10 34 0 53 -4 49 -10z m215 0 c0 -5
-25 -10 -55 -10 -30 0 -55 5 -55 10 0 6 25 10 55 10 30 0 55 -4 55 -10z m-10
-31 c0 -14 -35 -19 -148 -19 -118 0 -166 6 -157 19 6 10 305 10 305 0z"/>
<path d="M4755 1026 c-25 -55 -35 -146 -15 -146 6 0 10 8 10 18 0 9 8 29 18
44 l18 27 17 -28 c9 -16 17 -37 17 -46 0 -9 5 -13 10 -10 13 8 13 68 -1 102
-27 65 -40 93 -45 93 -2 0 -15 -24 -29 -54z m65 -66 c0 -10 -6 -7 -19 9 l-18
24 -17 -24 c-21 -30 -21 -11 1 43 l17 42 18 -39 c9 -22 17 -47 18 -55z"/>
<path d="M4921 1028 c-29 -66 -36 -110 -23 -134 10 -18 11 -18 17 1 26 79 38
83 64 23 16 -39 19 -41 25 -20 4 12 4 37 1 55 -9 40 -47 127 -55 127 -3 0 -17
-24 -29 -52z m49 -13 c5 -14 13 -38 16 -53 l7 -27 -21 25 -20 25 -22 -20 -23
-20 8 25 c24 77 38 89 55 45z"/>
<path d="M5090 1038 c-25 -49 -38 -142 -21 -152 6 -4 11 0 11 11 0 10 8 31 19
46 l18 28 17 -34 c9 -19 16 -40 16 -46 0 -6 5 -11 10 -11 20 0 10 94 -15 148
-13 28 -26 52 -29 52 -2 0 -14 -19 -26 -42z m60 -78 c0 -9 -6 -6 -16 9 l-17
24 -18 -24 c-15 -19 -19 -21 -19 -7 0 10 8 34 17 54 l18 36 17 -38 c10 -22 18
-46 18 -54z"/>
<path d="M1732 988 l-2 -48 33 1 c29 2 29 2 5 6 -24 4 -27 10 -31 46 l-4 42
-1 -47z"/>
<path d="M2391 983 c2 -47 2 -47 9 -13 l7 35 12 -32 c17 -43 27 -42 37 5 l8
37 6 -40 7 -40 2 48 c1 36 -3 47 -14 47 -9 0 -15 -9 -15 -25 0 -14 -4 -25 -10
-25 -5 0 -12 11 -16 25 -11 46 -34 30 -33 -22z"/>
<path d="M1814 999 c-4 -8 0 -9 15 -4 22 7 30 -10 9 -18 -10 -4 -10 -6 0 -6 6
-1 12 -5 12 -11 0 -14 -27 -12 -33 3 -3 7 -6 5 -6 -5 -1 -13 7 -18 29 -18 31
0 38 17 24 54 -7 18 -39 21 -50 5z"/>
<path d="M1890 976 c0 -20 2 -36 4 -36 8 0 12 61 4 66 -4 3 -8 -11 -8 -30z"/>
<path d="M1928 975 c2 -19 8 -35 14 -35 13 0 6 63 -8 67 -6 2 -8 -10 -6 -32z"/>
<path d="M1967 999 c6 -8 13 -25 16 -39 4 -17 5 -15 4 9 -1 21 -8 36 -17 39
-12 4 -13 2 -3 -9z"/>
<path d="M2023 975 c0 -22 2 -30 4 -17 2 12 2 30 0 40 -3 9 -5 -1 -4 -23z"/>
<path d="M2063 975 c0 -22 2 -30 4 -17 2 12 2 30 0 40 -3 9 -5 -1 -4 -23z"/>
<path d="M2087 1002 c6 -4 13 -21 16 -37 4 -27 4 -27 6 8 1 29 -3 37 -16 37
-12 0 -14 -3 -6 -8z"/>
<path d="M2144 985 c-8 -31 6 -48 32 -43 29 5 26 62 -3 66 -17 3 -24 -3 -29
-23z m44 -13 c2 -14 -2 -22 -12 -22 -19 0 -29 17 -22 36 8 22 30 12 34 -14z"/>
<path d="M2233 975 c0 -22 2 -30 4 -17 2 12 2 30 0 40 -3 9 -5 -1 -4 -23z"/>
<path d="M2271 971 c1 -28 3 -30 6 -11 3 14 9 30 14 36 5 7 3 11 -6 11 -11 0
-15 -11 -14 -36z"/>
<path d="M2511 996 c-19 -23 -4 -56 25 -56 13 0 24 4 24 9 0 5 -9 7 -20 4 -11
-3 -20 0 -20 6 0 6 9 11 21 11 14 0 19 5 17 17 -4 23 -31 28 -47 9z m34 -6 c3
-5 -1 -10 -9 -10 -9 0 -16 5 -16 10 0 6 4 10 9 10 6 0 13 -4 16 -10z"/>
<path d="M2592 978 c-2 -36 0 -38 28 -38 27 0 30 3 30 29 0 17 -4 33 -10 36
-6 4 -10 -7 -10 -24 0 -43 -27 -41 -33 2 -4 31 -4 31 -5 -5z"/>
<path d="M2670 975 c0 -19 5 -35 10 -35 6 0 10 16 10 35 0 19 -4 35 -10 35 -5
0 -10 -16 -10 -35z"/>
<path d="M2707 999 c6 -8 13 -25 16 -39 4 -17 5 -15 4 9 -1 21 -8 36 -17 39
-12 4 -13 2 -3 -9z"/>
<path d="M2761 996 c-18 -22 -4 -56 22 -55 17 1 18 2 5 6 -25 6 -22 23 3 23
14 0 19 5 17 17 -4 23 -31 28 -47 9z m34 -6 c3 -5 -1 -10 -10 -10 -9 0 -13 5
-10 10 3 6 8 10 10 10 2 0 7 -4 10 -10z"/>
<path d="M2841 971 c1 -28 3 -30 6 -11 3 14 9 30 14 36 5 7 3 11 -6 11 -11 0
-15 -11 -14 -36z"/>
<path d="M2890 976 c0 -20 5 -36 10 -36 6 0 10 13 10 29 0 17 -4 33 -10 36 -6
4 -10 -8 -10 -29z"/>
<path d="M2931 996 c-19 -23 -4 -56 25 -56 13 0 24 4 24 9 0 5 -9 7 -20 4 -11
-3 -20 0 -20 6 0 6 9 11 21 11 14 0 19 5 17 17 -4 23 -31 28 -47 9z m39 -6 c0
-5 -7 -10 -16 -10 -8 0 -12 5 -9 10 3 6 10 10 16 10 5 0 9 -4 9 -10z"/>
<path d="M5451 933 c1 -27 4 -38 6 -26 2 13 13 24 26 26 l22 4 -22 2 c-33 2
-29 29 5 34 25 4 25 4 -5 6 -33 1 -33 1 -32 -46z"/>
<path d="M6240 934 c0 -27 4 -43 10 -39 6 3 10 24 10 46 0 21 -4 39 -10 39 -5
0 -10 -21 -10 -46z"/>
<path d="M1133 953 c-3 -8 -1 -19 5 -25 7 -7 7 -18 0 -34 -15 -32 -7 -37 53
-40 55 -2 72 13 50 47 -7 12 -7 19 -1 19 5 0 10 11 10 24 0 23 -3 24 -56 24
-39 0 -57 -5 -61 -15z m39 -8 c0 -5 -5 -11 -11 -13 -6 -2 -11 4 -11 13 0 9 5
15 11 13 6 -2 11 -8 11 -13z m68 -6 c0 -5 -7 -9 -15 -9 -15 0 -20 12 -9 23 8
8 24 -1 24 -14z m-31 -35 c-9 -11 -15 -12 -26 -3 -17 14 1 31 24 22 10 -4 11
-9 2 -19z m-38 -27 c-1 -12 -15 -9 -19 4 -3 6 1 10 8 8 6 -3 11 -8 11 -12z
m67 2 c-2 -6 -8 -10 -13 -10 -5 0 -11 4 -13 10 -2 6 4 11 13 11 9 0 15 -5 13
-11z"/>
<path d="M6437 963 c-6 -11 4 -73 12 -73 8 0 8 67 -1 75 -3 3 -8 3 -11 -2z"/>
<path d="M1307 953 c-4 -3 -7 -26 -7 -50 0 -36 3 -43 20 -43 11 0 20 5 20 12
0 9 3 9 12 0 7 -7 20 -12 30 -12 15 0 18 8 18 45 0 48 -22 72 -42 44 -7 -11
-11 -11 -15 -1 -5 13 -25 16 -36 5z m75 -65 c-9 -20 -11 -18 -11 22 0 40 2 42
11 23 8 -17 8 -29 0 -45z m-52 17 c0 -19 -4 -35 -10 -35 -5 0 -10 16 -10 35 0
19 5 35 10 35 6 0 10 -16 10 -35z"/>
<path d="M1414 947 c-3 -8 -4 -30 -2 -49 2 -25 8 -33 23 -33 17 0 20 7 20 45
0 35 -4 45 -18 48 -9 2 -20 -3 -23 -11z m26 -43 c0 -21 -4 -33 -10 -29 -5 3
-10 19 -10 36 0 16 5 29 10 29 6 0 10 -16 10 -36z"/>
<path d="M1477 954 c-4 -4 -7 -27 -7 -51 0 -37 3 -43 21 -43 18 0 20 5 17 47
-3 44 -15 62 -31 47z m23 -49 c0 -19 -4 -35 -10 -35 -5 0 -10 16 -10 35 0 19
5 35 10 35 6 0 10 -16 10 -35z"/>
<path d="M5542 951 c-8 -4 -12 -19 -10 -32 4 -30 45 -33 62 -6 9 15 7 21 -8
33 -23 16 -26 17 -44 5z m36 -29 c2 -14 -2 -22 -12 -22 -19 0 -29 17 -22 36 8
22 30 12 34 -14z"/>
<path d="M5718 953 c-19 -5 -26 -63 -8 -63 6 0 10 10 10 23 0 13 5 28 12 35 7
7 10 11 8 11 -3 -1 -13 -3 -22 -6z"/>
<path d="M5805 951 c-4 -7 0 -8 11 -4 13 5 16 3 11 -10 -4 -10 -2 -17 5 -17 8
0 8 -4 -1 -12 -11 -11 -14 -10 -18 0 -3 6 -9 10 -14 6 -16 -9 1 -24 27 -24 22
0 25 4 22 32 -3 33 -29 50 -43 29z"/>
<path d="M5925 950 c-4 -6 1 -7 11 -3 13 5 16 3 11 -10 -3 -9 -2 -17 4 -17 6
0 7 -4 4 -10 -3 -5 -13 -10 -21 -10 -8 0 -12 5 -9 10 3 6 1 10 -5 10 -23 0 -3
-25 23 -28 24 -3 27 0 27 26 0 18 -6 32 -16 36 -21 8 -22 8 -29 -4z"/>
<path d="M6008 952 c-13 -2 -18 -13 -17 -35 1 -21 3 -25 6 -12 3 11 12 26 21
32 18 15 14 21 -10 15z"/>
<path d="M6057 953 c-4 -3 -7 -17 -7 -30 0 -26 26 -41 42 -25 8 8 5 9 -11 5
-19 -5 -22 -2 -19 18 2 16 9 24 20 23 10 -1 15 2 12 7 -6 11 -28 12 -37 2z"/>
<path d="M6170 945 c-26 -32 15 -75 44 -45 8 9 6 11 -11 5 -20 -5 -23 -3 -23
20 0 17 4 25 13 22 6 -2 11 -10 10 -16 -2 -6 2 -11 7 -11 16 0 11 27 -6 34
-21 8 -20 8 -34 -9z"/>
<path d="M6292 951 c-22 -13 -11 -56 16 -59 12 -2 22 1 22 6 0 6 -9 8 -20 5
-17 -4 -20 -1 -17 18 4 26 27 39 27 15 0 -9 5 -16 10 -16 14 0 13 13 -2 28
-14 14 -19 15 -36 3z"/>
<path d="M6372 951 c-19 -12 -11 -55 12 -59 10 -2 23 1 30 8 8 9 4 10 -17 4
-26 -6 -28 -4 -25 17 2 19 8 23 28 21 20 -2 22 0 10 8 -18 12 -21 12 -38 1z"/>
<path d="M6503 953 c-7 -3 -12 -19 -12 -36 2 -28 2 -29 6 -7 3 14 10 28 16 32
14 9 6 17 -10 11z"/>
<path d="M6584 946 c-10 -26 1 -51 23 -54 12 -2 24 -11 26 -20 3 -9 5 4 6 31
1 27 -3 47 -9 47 -6 0 -10 -6 -9 -12 3 -27 -2 -38 -16 -38 -18 0 -20 31 -3 48
9 9 9 12 0 12 -7 0 -15 -6 -18 -14z"/>
<path d="M6762 951 c-22 -13 -11 -56 16 -59 12 -2 22 1 22 6 0 6 -9 8 -21 5
-17 -5 -20 -2 -17 17 4 28 24 38 31 15 4 -13 5 -12 3 1 -1 21 -16 27 -34 15z"/>
<path d="M2315 940 c3 -5 8 -10 11 -10 2 0 4 5 4 10 0 6 -5 10 -11 10 -5 0 -7
-4 -4 -10z"/>
<path d="M5623 926 c1 -17 9 -31 17 -33 10 -3 11 -2 4 4 -7 4 -14 19 -17 33
-4 22 -5 21 -4 -4z"/>
<path d="M5660 920 c0 -16 5 -30 10 -30 6 0 10 14 10 30 0 17 -4 30 -10 30 -5
0 -10 -13 -10 -30z"/>
<path d="M6542 920 c0 -19 2 -27 5 -17 2 9 2 25 0 35 -3 9 -5 1 -5 -18z"/>
<path d="M6671 923 c-1 -25 3 -33 17 -33 11 0 13 3 6 8 -7 4 -14 18 -17 32 -4
21 -4 20 -6 -7z"/>
<path d="M6712 920 c0 -19 2 -27 5 -17 2 9 2 25 0 35 -3 9 -5 1 -5 -18z"/>
<path d="M4823 783 c70 -2 184 -2 255 0 70 1 12 3 -128 3 -140 0 -198 -2 -127
-3z"/>
</g>
</svg>
